Coordinates
version=1
nRows=17
nColumns=24
inDegrees=yes

Units are S.I. units (second, meters, Newtons, ...)
Angles are in degrees.

endheader
time	pelvis_tilt	pelvis_list	pelvis_rotation	pelvis_tx	pelvis_ty	pelvis_tz	hip_flexion_r	hip_adduction_r	hip_rotation_r	knee_angle_r	ankle_angle_r	subtalar_angle_r	mtp_angle_r	hip_flexion_l	hip_adduction_l	hip_rotation_l	knee_angle_l	ankle_angle_l	subtalar_angle_l	mtp_angle_l	lumbar_extension	lumbar_bending	lumbar_rotation
      3.40500000	     -6.77839536	     -2.65352622	     -7.08653865	     -0.94733831	     -0.03910526	     -0.11992029	     -6.63332899	      7.45229186	      8.54115279	    -25.86591512	      5.57804524	     15.66587267	     18.59464592	     37.55857415	     -2.87879109	    -17.62831602	    -14.64519460	      8.76241134	     14.10218099	    -16.25103933	      5.38684525	      2.08426902	      6.65527601
      3.41000000	     -6.88966322	     -2.29834651	     -7.07375217	     -0.93959393	     -0.03962943	     -0.12036057	     -6.55176119	      6.89462119	      8.15064405	    -26.61622800	      4.81586522	     16.53275165	     19.07738046	     37.57689319	     -2.49413847	    -17.74023612	    -15.28996759	      8.07882943	     13.02294455	    -16.35254376	      5.74736952	      1.64107396	      6.53997367
      3.41500000	     -6.95587345	     -1.93282124	     -6.97911773	     -0.93187794	     -0.04009725	     -0.12100840	     -6.47128856	      6.29068793	      7.57061242	    -27.37996423	      3.87637325	     17.40631674	     19.96563736	     37.54963014	     -1.99961714	    -17.58394335	    -15.86373679	      7.18353175	     11.61456867	    -16.35172414	      6.03979432	      1.17623987	      6.31265099
      3.42000000	     -7.04724772	     -1.51332733	     -6.85572181	     -0.92405785	     -0.04047857	     -0.12168550	     -6.34002385	      5.61972974	      6.98344424	    -28.13590873	      2.74023741	     18.29279647	     21.08761497	     37.53935335	     -1.43960467	    -17.44680971	    -16.38803052	      6.14471338	     10.26031783	    -16.25035499	      6.38238882	      0.65097559	      6.08080741
      3.42500000	     -7.15108819	     -1.06353210	     -6.68683293	     -0.91623196	     -0.04081218	     -0.12243511	     -6.15082529	      4.90285275	      6.34371738	    -28.91915724	      1.42887048	     19.20466998	     22.44349313	     37.55266002	     -0.81869155	    -17.23170250	    -16.88687811	      4.98779017	      8.91088507	    -16.07572731	      6.73373864	      0.08604518	      5.81339542
      3.43000000	     -7.20935157	     -0.62005144	     -6.41365286	     -0.90830268	     -0.04099595	     -0.12324667	     -6.03836908	      4.19514969	      5.63949353	    -29.54974573	     -0.41618540	     19.73242018	     24.56885777	     37.49974108	     -0.12380149	    -16.79848488	    -17.31207830	      3.61689117	      7.52165904	    -15.45689700	      7.04282432	     -0.50255170	      5.50441388
      3.43500000	     -7.36378662	     -0.11732394	     -6.19537696	     -0.90043832	     -0.04128778	     -0.12403727	     -5.70771370	      3.40524750	      4.98052966	    -30.40040532	     -2.05656109	     20.68560863	     26.25228238	     37.59814027	      0.56206183	    -16.54580974	    -17.83348774	      2.34716421	      6.31073986	    -15.09237457	      7.44752889	     -1.13445755	      5.20567736
      3.44000000	     -7.51140079	      0.38909064	     -5.94416790	     -0.89257410	     -0.04154815	     -0.12487199	     -5.34380339	      2.59884732	      4.31099609	    -31.28402303	     -3.89748256	     21.63574565	     27.98437723	     37.71096059	      1.26957437	    -16.22157798	    -18.41175487	      1.15390386	      5.19632749	    -14.92070578	      7.83332519	     -1.77870406	      4.90184617
      3.44500000	     -7.67689108	      0.89223945	     -5.66880137	     -0.88470976	     -0.04183195	     -0.12572634	     -4.91712797	      1.78781870	      3.64226374	    -32.21458209	     -5.88830948	     22.59797386	     29.70500209	     37.86250891	      1.98124329	    -15.86731105	    -19.05212877	      0.07233248	      4.19342407	    -14.93879142	      8.22945623	     -2.42177790	      4.59071520
      3.45000000	     -7.86962343	      1.37109898	     -5.39402382	     -0.87696052	     -0.04219321	     -0.12662634	     -4.38329228	      0.98675686	      3.01341606	    -33.28305124	     -7.85246192	     23.78747422	     31.02216917	     38.08453882	      2.65465105	    -15.54511505	    -19.79038645	     -0.85917978	      3.33023110	    -15.13814674	      8.62259922	     -3.02839136	      4.29852218
      3.45500000	     -8.05205050	      1.84947568	     -5.06406947	     -0.86911506	     -0.04254589	     -0.12756288	     -3.85750136	      0.18623635	      2.36385264	    -34.31115711	    -10.11726604	     24.71456917	     32.50856996	     38.26745903	      3.37573625	    -15.10265149	    -20.50968177	     -1.68761878	      2.48701342	    -15.40008231	      9.01282509	     -3.65077217	      3.95556496
      3.46000000	     -8.22486021	      2.31315541	     -4.72180308	     -0.86128646	     -0.04291218	     -0.12848225	     -3.31003094	     -0.59454817	      1.76583537	    -35.36815954	    -12.51905086	     25.53024793	     33.88300653	     38.42948971	      4.08005244	    -14.69057089	    -21.24178564	     -2.35581482	      1.79550016	    -15.65565874	      9.37942604	     -4.26453514	      3.61125725
      3.46500000	     -8.42947626	      2.78522619	     -4.36164028	     -0.85339088	     -0.04334886	     -0.12941370	     -2.69670871	     -1.37298935	      1.25856115	    -36.51631084	    -14.84740694	     26.39769635	     34.64762305	     38.58861261	      4.80203674	    -14.27516135	    -21.94154053	     -2.85766413	      1.20408903	    -15.83702331	      9.79466789	     -4.89257513	      3.22478138
      3.47000000	     -8.60063467	      3.21943537	     -3.98024589	     -0.84569429	     -0.04378585	     -0.13040217	     -2.06037963	     -2.11577078	      0.74093493	    -37.73328874	    -17.23288885	     27.08043840	     35.22542655	     38.70511178	      5.50685345	    -13.85126386	    -22.62703894	     -3.29030250	      0.64418180	    -15.94985635	     10.11629949	     -5.47831012	      2.85434250
      3.47500000	     -8.75370361	      3.64598875	     -3.58998612	     -0.83807663	     -0.04422800	     -0.13141376	     -1.39973655	     -2.84875214	      0.25507896	    -39.01955977	    -19.57087266	     27.61768728	     35.48918686	     38.77198710	      6.20825543	    -13.48150339	    -23.27622573	     -3.58644829	      0.17480958	    -15.93390966	     10.39628574	     -6.05457841	      2.47893051
      3.48000000	     -8.88639510	      4.07328153	     -3.18927364	     -0.83055733	     -0.04464808	     -0.13242540	     -0.71680415	     -3.57467045	     -0.19759897	    -40.38099331	    -21.78767673	     27.98717502	     35.41132659	     38.78040002	      6.91299798	    -13.16091853	    -23.87545538	     -3.77496974	     -0.19148292	    -15.81229975	     10.63250469	     -6.63216878	      2.10001434
      3.48500000	     -9.03281687	      4.47427695	     -2.77195243	     -0.82310540	     -0.04509045	     -0.13356680	      0.01713726	     -4.27549296	     -0.62808219	    -41.79693935	    -23.90079246	     28.16340745	     35.11111549	     38.75601778	      7.63099876	    -12.80595916	    -24.40125843	     -3.86549142	     -0.63182827	    -15.56480146	     10.86655619	     -7.16702493	      1.68237869
